<mxfile host="app.diagrams.net" modified="2024-01-26T16:19:17.285Z" agent="Mozilla/5.0 (Windows NT 10.0; Win64; x64) AppleWebKit/537.36 (KHTML, like Gecko) Chrome/120.0.0.0 Safari/537.36" version="23.0.0" etag="NMFksF2LQ-S3ofWpYFsA" type="github">
  <diagram name="Page-1" id="-su46TdzlrzC2JacVH6D">
    <mxGraphModel>
      <root>
        <mxCell id="0" />
        <mxCell id="1" parent="0" />
      </root>
    </mxGraphModel>
  </diagram>
</mxfile>
